<svg width="21" height="21" viewBox="0 0 21 21" fill="none" xmlns="http://www.w3.org/2000/svg">
<path fill-rule="evenodd" clip-rule="evenodd" d="M16.695 9.34499C13.335 7.34999 7.7175 7.14 4.515 8.1375C3.99 8.295 3.465 7.98 3.3075 7.5075C3.15 6.9825 3.465 6.4575 3.9375 6.3C7.665 5.1975 13.8075 5.40751 17.6925 7.71751C18.165 7.98001 18.3225 8.61 18.06 9.0825C17.7975 9.45 17.1675 9.60749 16.695 9.34499ZM16.59 12.285C16.3275 12.6525 15.855 12.81 15.4875 12.5475C12.6525 10.815 8.3475 10.29 5.04 11.34C4.62 11.445 4.1475 11.235 4.0425 10.815C3.9375 10.395 4.1475 9.9225 4.5675 9.8175C8.4 8.6625 13.125 9.24 16.38 11.235C16.695 11.3925 16.8525 11.9175 16.59 12.285ZM15.33 15.1725C15.12 15.4875 14.7525 15.5925 14.4375 15.3825C11.97 13.86 8.8725 13.545 5.1975 14.385C4.83 14.49 4.515 14.2275 4.41 13.9125C4.305 13.545 4.5675 13.23 4.8825 13.125C8.8725 12.2325 12.3375 12.6 15.0675 14.28C15.435 14.4375 15.4875 14.8575 15.33 15.1725ZM10.5 0C4.725 0 0 4.725 0 10.5C0 16.275 4.725 21 10.5 21C16.275 21 21 16.275 21 10.5C21 4.725 16.3275 0 10.5 0Z" fill="white"/>
</svg>
