<svg width="640" height="173" viewBox="0 0 640 173" fill="none" xmlns="http://www.w3.org/2000/svg">
<path fill-rule="evenodd" clip-rule="evenodd" d="M0 115.247L21 96.2471C43 77.2471 85 39.2471 128 35.2471C171 32.2471 213 64.2471 256 77.2471C299 90.2471 341 83.2471 384 67.2471C427 51.2471 469 26.2471 512 29.2471C555 32.2471 597 64.2471 619 80.2471L640 96.2471V173.247H619C597 173.247 555 173.247 512 173.247C469 173.247 427 173.247 384 173.247C341 173.247 299 173.247 256 173.247C213 173.247 171 173.247 128 173.247C85 173.247 43 173.247 21 173.247H0V115.247Z" fill="#99CB71"/>
<path fill-rule="evenodd" clip-rule="evenodd" d="M0 18.5673L27 15.5673C53 12.5673 107 6.56727 160 12.5673C213 18.5673 267 38.5673 320 63.5673C373 89.5673 427 121.567 480 118.567C533 114.567 587 76.5673 613 57.5673L640 38.5673V172.567H613C587 172.567 533 172.567 480 172.567C427 172.567 373 172.567 320 172.567C267 172.567 213 172.567 160 172.567C107 172.567 53 172.567 27 172.567H0V18.5673Z" fill="#B0D990"/>
<path fill-rule="evenodd" clip-rule="evenodd" d="M0 114.884L18 105.884C36 95.8841 71 76.8841 107 70.8841C142 63.8841 178 70.8841 213 57.8841C249 44.8841 284 12.8841 320 2.88412C356 -6.11588 391 6.88412 427 28.8841C462 50.8841 498 82.8841 533 102.884C569 121.884 604 127.884 622 130.884L640 134.884V172.884H622C604 172.884 569 172.884 533 172.884C498 172.884 462 172.884 427 172.884C391 172.884 356 172.884 320 172.884C284 172.884 249 172.884 213 172.884C178 172.884 142 172.884 107 172.884C71 172.884 36 172.884 18 172.884H0V114.884Z" fill="#D1ECBC"/>
</svg>
